<?xml version="1.0" encoding="utf-8"?>
<!-- Generator: Adobe Illustrator 18.0.0, SVG Export Plug-In . SVG Version: 6.00 Build 0)  -->
<!DOCTYPE svg PUBLIC "-//W3C//DTD SVG 1.1//EN" "http://www.w3.org/Graphics/SVG/1.1/DTD/svg11.dtd">
<svg version="1.1" id="Слой_1" xmlns="http://www.w3.org/2000/svg" xmlns:xlink="http://www.w3.org/1999/xlink" x="0px" y="0px"
	 viewBox="0 104.3 612 590.1" enable-background="new 0 104.3 612 590.1" xml:space="preserve">
<path fill="#000000"      d="
	M554.6,435.4c0.5-3.2,0.9-6.3,1.2-9.5l15.5-8.6l27.8,17.2l-16.5-55.8l-27-10.4c-0.3-2.7-0.6-5.3-1.1-8l12.4-11.8l31.3,9.4L568,308.1
	l-28.2-3.3c-1.3-3.2-2.6-6.4-4-9.7l8.5-14.2l32.7,0.9l-42.3-40.1l-27.7,4.2c-1.8-2.4-3.6-4.7-5.5-7l4.5-15.5l31.8-7.6l-51-27.8
	L461.3,199c-2.9-2.3-6-4.6-9-6.8l0.2-15.8l28.7-15.7l-56.7-13.5l-21.3,17.2c-2.6-1.1-5.1-2.1-7.7-3.1l-3.6-15l23.9-22.4l-58.2,1.2
	L341.3,147c-3.9-0.5-7.7-1.1-11.6-1.5l-7.4-13.5l17.1-27.8l-55.8,16.5l-10,25.4c-3.2,0.4-6.4,0.9-9.6,1.3l-10.6-11.1l9.4-31.3
	L213,135.3l-3.2,27.1c-3.6,1.5-7.2,2.9-10.7,4.6l-13.3-8l0.9-32.7l-40.1,42.3l4.2,27.4c-2.5,1.9-4.9,3.8-7.3,5.7l-15.2-4.4
	l-7.6-31.9l-27.9,51.1l11.1,25.7c-2.2,2.9-4.4,5.7-6.5,8.7l-16.2-0.2L65.4,222l-13.5,56.7l17.8,22.2c-0.9,2.2-1.8,4.4-2.6,6.6
	l-16.2,3.9l-22.4-23.9l1.2,58.2l23.2,17.3c-0.5,3.2-0.9,6.5-1.2,9.7l-14.9,8.4L9,364.1L25.5,420l27.4,10.8c0.3,2.4,0.6,4.7,1,7
	l-12.8,12.4l-31.3-9.5l30.2,49.7l29.6,3.3c1.2,2.8,2.3,5.6,3.6,8.3l-9.4,15.6L31,516.7l42.2,40l30-4.7c1.3,1.7,2.7,3.5,4.1,5.2
	l-5.2,18l-31.9,7.5l51,27.8l27.9-12.3l0.1-0.1c2.2,1.6,4.3,3.3,6.5,4.9l-0.3,19.1l-28.8,15.6l56.6,13.5l23.7-19.3l0.2-0.2
	c1.5,0.6,2.9,1.2,4.4,1.8l4.6,18.8l-23.9,22.4l58.2-1.2l18.1-24.6l0.2-0.5c2.6,0.4,5.2,0.7,7.8,1l0,0l9.4,17.1l-17.2,27.8l55.6-16.5
	l10.8-28.5v-0.5c2.5-0.2,4-0.5,6-0.8l0,0l13.6,14.1l-9.4,31.3l49.7-30.2l3.4-30.3l-0.1-0.3c2.5-1,4.9-2,7.3-3.1l16.6,10l-0.9,32.7
	l40-42.2l-4.7-30.2l-0.1-0.2c1.7-1.2,3.3-2.6,5-3.9l18.3,5.3l7.5,31.9l27.8-51L503,554.3c1.8-2.2,3.5-4.5,5.2-6.8l18.7,0.3
	l15.6,28.8L556,520l-18.8-23.2c0.8-1.8,1.5-3.6,2.2-5.3l17.6-4.3l22.4,23.9l-1.2-58.2L554.6,435.4z M375.7,397.6
	c0,39.5-32.1,71.6-71.6,71.6s-71.6-32.1-71.6-71.6s32.1-71.6,71.6-71.6S375.7,358,375.7,397.6z"/>
</svg>
